{
  "accessors": [
    {
      "bufferView": 2,
      "componentType": 5126,
      "count": 30998,
      "max": [
        57.065948486328125,
        73.38555908203125,
        13.979170799255371
      ],
      "min": [
        -57.065948486328125,
        -73.00205993652344,
        -13.979170799255371
      ],
      "type": "VEC3"
    },
    {
      "bufferView": 2,
      "byteOffset": 371976,
      "componentType": 5126,
      "count": 30998,
      "max": [
        0.9998611807823181,
        0.9998775124549866,
        0.9999637007713318
      ],
      "min": [
        -0.9998611807823181,
        -0.9999582171440125,
        -0.9999796152114868
      ],
      "type": "VEC3"
    },
    {
      "bufferView": 3,
      "componentType": 5126,
      "count": 30998,
      "max": [
        1.0,
        0.9999273419380188,
        0.9999893307685852,
        1.0
      ],
      "min": [
        -0.9999878406524658,
        -0.9999772906303406,
        -0.9999814033508301,
        -1.0
      ],
      "type": "VEC4"
    },
    {
      "bufferView": 1,
      "componentType": 5126,
      "count": 30998,
      "max": [
        0.9977896809577942,
        0.998175859451294
      ],
      "min": [
        0.011205106973648071,
        0.0009711980819702148
      ],
      "type": "VEC2"
    },
    {
      "bufferView": 0,
      "componentType": 5125,
      "count": 172788,
      "type": "SCALAR"
    },
    {
      "bufferView": 2,
      "byteOffset": 743952,
      "componentType": 5126,
      "count": 462,
      "max": [
        4.0852460861206055,
        64.53596496582031,
        10.838647842407227
      ],
      "min": [
        -4.085227012634277,
        61.83904266357422,
        9.445886611938477
      ],
      "type": "VEC3"
    },
    {
      "bufferView": 2,
      "byteOffset": 749496,
      "componentType": 5126,
      "count": 462,
      "max": [
        0.9989821314811707,
        0.9969167113304138,
        0.9994415640830994
      ],
      "min": [
        -0.9989820122718811,
        -0.9969186782836914,
        0.04510415717959404
      ],
      "type": "VEC3"
    },
    {
      "bufferView": 3,
      "byteOffset": 495968,
      "componentType": 5126,
      "count": 462,
      "max": [
        0.9999502301216125,
        0.5770760774612427,
        0.9978857636451721,
        1.0
      ],
      "min": [
        -0.9998395442962646,
        -0.5753211379051208,
        -0.997058093547821,
        1.0
      ],
      "type": "VEC4"
    },
    {
      "bufferView": 1,
      "byteOffset": 247984,
      "componentType": 5126,
      "count": 462,
      "max": [
        0.6475609540939331,
        0.7564003467559814
      ],
      "min": [
        0.22006411850452423,
        0.10447949171066284
      ],
      "type": "VEC2"
    },
    {
      "bufferView": 0,
      "byteOffset": 691152,
      "componentType": 5125,
      "count": 2280,
      "type": "SCALAR"
    }
  ],
  "asset": {
    "extras": {
      "author": "sapenton8821 (https://sketchfab.com/sapenton8821)",
      "license": "CC-BY-4.0 (http://creativecommons.org/licenses/by/4.0/)",
      "source": "https://sketchfab.com/3d-models/character2-lo-res-mesh-textured-826dc32bcf5948df933feea6a20ef022",
      "title": "Character2 Lo-Res Mesh Textured"
    },
    "generator": "Sketchfab-12.66.0",
    "version": "2.0"
  },
  "bufferViews": [
    {
      "buffer": 0,
      "byteLength": 700272,
      "name": "floatBufferViews",
      "target": 34963
    },
    {
      "buffer": 0,
      "byteLength": 251680,
      "byteOffset": 700272,
      "byteStride": 8,
      "name": "floatBufferViews",
      "target": 34962
    },
    {
      "buffer": 0,
      "byteLength": 755040,
      "byteOffset": 951952,
      "byteStride": 12,
      "name": "floatBufferViews",
      "target": 34962
    },
    {
      "buffer": 0,
      "byteLength": 503360,
      "byteOffset": 1706992,
      "byteStride": 16,
      "name": "floatBufferViews",
      "target": 34962
    }
  ],
  "buffers": [
    {
      "byteLength": 2210352,
      "uri": "scene.bin"
    }
  ],
  "images": [
    {
      "uri": "textures/Skin_MAT_baseColor.png"
    },
    {
      "uri": "textures/Skin_MAT_metallicRoughness.png"
    },
    {
      "uri": "textures/Skin_MAT_normal.png"
    },
    {
      "uri": "textures/Eye_MAT_baseColor.png"
    },
    {
      "uri": "textures/Eye_MAT_metallicRoughness.png"
    },
    {
      "uri": "textures/Eye_MAT_normal.png"
    }
  ],
  "materials": [
    {
      "alphaMode": "BLEND",
      "doubleSided": true,
      "name": "Skin_MAT",
      "normalTexture": {
        "index": 2
      },
      "occlusionTexture": {
        "index": 1
      },
      "pbrMetallicRoughness": {
        "baseColorTexture": {
          "index": 0
        },
        "metallicRoughnessTexture": {
          "index": 1
        }
      }
    },
    {
      "doubleSided": true,
      "name": "Eye_MAT",
      "normalTexture": {
        "index": 5
      },
      "occlusionTexture": {
        "index": 4
      },
      "pbrMetallicRoughness": {
        "baseColorTexture": {
          "index": 3
        },
        "metallicFactor": 0.0,
        "metallicRoughnessTexture": {
          "index": 4
        }
      }
    }
  ],
  "meshes": [
    {
      "name": "Oskar_LoRes_Skin_MAT_0",
      "primitives": [
        {
          "attributes": {
            "NORMAL": 1,
            "POSITION": 0,
            "TANGENT": 2,
            "TEXCOORD_0": 3
          },
          "indices": 4,
          "material": 0,
          "mode": 4
        }
      ]
    },
    {
      "name": "Oskar_LoRes_Eye_MAT_0",
      "primitives": [
        {
          "attributes": {
            "NORMAL": 6,
            "POSITION": 5,
            "TANGENT": 7,
            "TEXCOORD_0": 8
          },
          "indices": 9,
          "material": 1,
          "mode": 4
        }
      ]
    }
  ],
  "nodes": [
    {
      "children": [
        1
      ],
      "matrix": [
        1.0,
        0.0,
        0.0,
        0.0,
        0.0,
        2.220446049250313e-16,
        -1.0,
        0.0,
        0.0,
        1.0,
        2.220446049250313e-16,
        0.0,
        0.0,
        0.0,
        0.0,
        1.0
      ],
      "name": "Sketchfab_model"
    },
    {
      "children": [
        2
      ],
      "matrix": [
        1.0,
        0.0,
        0.0,
        0.0,
        0.0,
        0.0,
        1.0,
        0.0,
        0.0,
        -1.0,
        0.0,
        0.0,
        0.0,
        0.0,
        0.0,
        1.0
      ],
      "name": "OSKARloRes.fbx"
    },
    {
      "children": [
        3
      ],
      "name": "RootNode"
    },
    {
      "children": [
        4,
        5
      ],
      "name": "Oskar_LoRes"
    },
    {
      "mesh": 0,
      "name": "Oskar_LoRes_Skin_MAT_0"
    },
    {
      "mesh": 1,
      "name": "Oskar_LoRes_Eye_MAT_0"
    }
  ],
  "samplers": [
    {
      "magFilter": 9729,
      "minFilter": 9987,
      "wrapS": 10497,
      "wrapT": 10497
    }
  ],
  "scene": 0,
  "scenes": [
    {
      "name": "Sketchfab_Scene",
      "nodes": [
        0
      ]
    }
  ],
  "textures": [
    {
      "sampler": 0,
      "source": 0
    },
    {
      "sampler": 0,
      "source": 1
    },
    {
      "sampler": 0,
      "source": 2
    },
    {
      "sampler": 0,
      "source": 3
    },
    {
      "sampler": 0,
      "source": 4
    },
    {
      "sampler": 0,
      "source": 5
    }
  ]
}
