{
  "accessors": [
    {
      "bufferView": 2,
      "componentType": 5126,
      "count": 15678,
      "max": [
        1.0,
        0.9897869825363159,
        0.17570799589157104
      ],
      "min": [
        -1.0,
        -0.9897869825363159,
        -0.17570799589157104
      ],
      "type": "VEC3"
    },
    {
      "bufferView": 2,
      "byteOffset": 188136,
      "componentType": 5126,
      "count": 15678,
      "max": [
        0.9999710321426392,
        0.9999268054962158,
        0.9999979734420776
      ],
      "min": [
        -0.9999710321426392,
        -0.9999568462371826,
        -0.9999998807907104
      ],
      "type": "VEC3"
    },
    {
      "bufferView": 3,
      "componentType": 5126,
      "count": 15678,
      "max": [
        0.9999516606330872,
        0.999982476234436,
        0.9999567866325378,
        1.0
      ],
      "min": [
        -0.9999516606330872,
        -0.9999998807907104,
        -0.9999268651008606,
        -1.0
      ],
      "type": "VEC4"
    },
    {
      "bufferView": 1,
      "componentType": 5126,
      "count": 15678,
      "max": [
        0.9637380242347717,
        0.9997349977493286
      ],
      "min": [
        0.00026500000967644155,
        0.00026500000967644155
      ],
      "type": "VEC2"
    },
    {
      "bufferView": 0,
      "componentType": 5125,
      "count": 86184,
      "type": "SCALAR"
    }
  ],
  "asset": {
    "extras": {
      "author": "Even Topland (https://sketchfab.com/even572)",
      "license": "CC-BY-NC-4.0 (http://creativecommons.org/licenses/by-nc/4.0/)",
      "source": "https://sketchfab.com/3d-models/built-male-young-anatomy-free-download-cd1ca53682ba4cf1aa64884cd4212a5e",
      "title": "Built Male Young Anatomy Free download"
    },
    "generator": "Sketchfab-12.68.0",
    "version": "2.0"
  },
  "bufferViews": [
    {
      "buffer": 0,
      "byteLength": 344736,
      "name": "floatBufferViews",
      "target": 34963
    },
    {
      "buffer": 0,
      "byteLength": 125424,
      "byteOffset": 344736,
      "byteStride": 8,
      "name": "floatBufferViews",
      "target": 34962
    },
    {
      "buffer": 0,
      "byteLength": 376272,
      "byteOffset": 470160,
      "byteStride": 12,
      "name": "floatBufferViews",
      "target": 34962
    },
    {
      "buffer": 0,
      "byteLength": 250848,
      "byteOffset": 846432,
      "byteStride": 16,
      "name": "floatBufferViews",
      "target": 34962
    }
  ],
  "buffers": [
    {
      "byteLength": 1097280,
      "uri": "scene.bin"
    }
  ],
  "images": [
    {
      "uri": "textures/defaultMat_baseColor.jpeg"
    },
    {
      "uri": "textures/defaultMat_metallicRoughness.png"
    },
    {
      "uri": "textures/defaultMat_normal.png"
    }
  ],
  "materials": [
    {
      "doubleSided": true,
      "name": "defaultMat",
      "normalTexture": {
        "index": 2
      },
      "occlusionTexture": {
        "index": 1
      },
      "pbrMetallicRoughness": {
        "baseColorTexture": {
          "index": 0
        },
        "metallicRoughnessTexture": {
          "index": 1
        }
      }
    }
  ],
  "meshes": [
    {
      "name": "defaultMaterial",
      "primitives": [
        {
          "attributes": {
            "NORMAL": 1,
            "POSITION": 0,
            "TANGENT": 2,
            "TEXCOORD_0": 3
          },
          "indices": 4,
          "material": 0,
          "mode": 4
        }
      ]
    }
  ],
  "nodes": [
    {
      "children": [
        1
      ],
      "matrix": [
        1.0,
        0.0,
        0.0,
        0.0,
        0.0,
        2.220446049250313e-16,
        -1.0,
        0.0,
        0.0,
        1.0,
        2.220446049250313e-16,
        0.0,
        0.0,
        0.0,
        0.0,
        1.0
      ],
      "name": "Sketchfab_model"
    },
    {
      "children": [
        2
      ],
      "matrix": [
        1.0,
        0.0,
        0.0,
        0.0,
        0.0,
        -4.371139006309477e-08,
        0.999999999999999,
        0.0,
        0.0,
        -0.999999999999999,
        -4.371139006309477e-08,
        0.0,
        0.0,
        0.0,
        0.0,
        1.0
      ],
      "name": "Collada visual scene group"
    },
    {
      "children": [
        3
      ],
      "name": "ZBrush_defualt_group"
    },
    {
      "mesh": 0,
      "name": "defaultMaterial"
    }
  ],
  "samplers": [
    {
      "magFilter": 9729,
      "minFilter": 9987,
      "wrapS": 10497,
      "wrapT": 10497
    }
  ],
  "scene": 0,
  "scenes": [
    {
      "name": "Sketchfab_Scene",
      "nodes": [
        0
      ]
    }
  ],
  "textures": [
    {
      "sampler": 0,
      "source": 0
    },
    {
      "sampler": 0,
      "source": 1
    },
    {
      "sampler": 0,
      "source": 2
    }
  ]
}
