{
  "accessors": [
    {
      "bufferView": 2,
      "componentType": 5126,
      "count": 7283,
      "max": [
        23.913103103637695,
        74.60858917236328,
        10.729736328125
      ],
      "min": [
        -23.654993057250977,
        -0.5850486755371094,
        -15.647429466247559
      ],
      "type": "VEC3"
    },
    {
      "bufferView": 2,
      "byteOffset": 87396,
      "componentType": 5126,
      "count": 7283,
      "max": [
        0.9999442100524902,
        0.9909204840660095,
        0.9998018145561218
      ],
      "min": [
        -0.9999299645423889,
        -0.9999586343765259,
        -0.999960720539093
      ],
      "type": "VEC3"
    },
    {
      "bufferView": 1,
      "componentType": 5126,
      "count": 7283,
      "max": [
        0.9980469942092896,
        0.9999690055847168
      ],
      "min": [
        3.099999958067201e-05,
        0.25927698612213135
      ],
      "type": "VEC2"
    },
    {
      "bufferView": 1,
      "byteOffset": 58264,
      "componentType": 5126,
      "count": 7283,
      "max": [
        0.9980469942092896,
        0.9999690055847168
      ],
      "min": [
        3.099999958067201e-05,
        0.25927698612213135
      ],
      "type": "VEC2"
    },
    {
      "bufferView": 0,
      "componentType": 5125,
      "count": 39405,
      "type": "SCALAR"
    }
  ],
  "asset": {
    "extras": {
      "author": "Hamza Khaloui (https://sketchfab.com/khalouihamzaa)",
      "license": "CC-BY-4.0 (http://creativecommons.org/licenses/by/4.0/)",
      "source": "https://sketchfab.com/3d-models/survival-pants-scifi-92126e1aee8e423bade8def122e6c3bf",
      "title": "Survival Pants scifi"
    },
    "generator": "Sketchfab-13.37.1",
    "version": "2.0"
  },
  "bufferViews": [
    {
      "buffer": 0,
      "byteLength": 157620,
      "name": "floatBufferViews",
      "target": 34963
    },
    {
      "buffer": 0,
      "byteLength": 116528,
      "byteOffset": 157620,
      "byteStride": 8,
      "name": "floatBufferViews",
      "target": 34962
    },
    {
      "buffer": 0,
      "byteLength": 174792,
      "byteOffset": 274148,
      "byteStride": 12,
      "name": "floatBufferViews",
      "target": 34962
    }
  ],
  "buffers": [
    {
      "byteLength": 448940,
      "uri": "scene.bin"
    }
  ],
  "images": [
    {
      "uri": "textures/manmaterial0005_baseColor.jpeg"
    }
  ],
  "materials": [
    {
      "doubleSided": true,
      "name": "manmaterial0005",
      "pbrMetallicRoughness": {
        "baseColorTexture": {
          "index": 0
        },
        "metallicFactor": 0.0,
        "roughnessFactor": 0.6419036705635675
      }
    }
  ],
  "meshes": [
    {
      "name": "man_pants_man:material0005_0",
      "primitives": [
        {
          "attributes": {
            "NORMAL": 1,
            "POSITION": 0,
            "TEXCOORD_0": 2,
            "TEXCOORD_1": 3
          },
          "indices": 4,
          "material": 0,
          "mode": 4
        }
      ]
    }
  ],
  "nodes": [
    {
      "children": [
        1
      ],
      "matrix": [
        1.0,
        0.0,
        0.0,
        0.0,
        0.0,
        2.220446049250313e-16,
        -1.0,
        0.0,
        0.0,
        1.0,
        2.220446049250313e-16,
        0.0,
        0.0,
        0.0,
        0.0,
        1.0
      ],
      "name": "Sketchfab_model"
    },
    {
      "children": [
        2
      ],
      "matrix": [
        0.009999999776482582,
        0.0,
        0.0,
        0.0,
        0.0,
        0.0,
        0.009999999776482582,
        0.0,
        0.0,
        -0.009999999776482582,
        0.0,
        0.0,
        0.0,
        0.0,
        0.0,
        1.0
      ],
      "name": "080a1e88e70e40999967df0a8bd7c8cb.fbx"
    },
    {
      "children": [
        3
      ],
      "name": "RootNode"
    },
    {
      "children": [
        4
      ],
      "matrix": [
        1.0,
        0.0,
        0.0,
        0.0,
        0.0,
        1.0,
        0.0,
        0.0,
        0.0,
        0.0,
        1.0,
        0.0,
        0.0,
        0.26851752400398254,
        0.0,
        1.0
      ],
      "name": "man_pants"
    },
    {
      "mesh": 0,
      "name": "man_pants_man:material0005_0"
    }
  ],
  "samplers": [
    {
      "magFilter": 9729,
      "minFilter": 9987,
      "wrapS": 10497,
      "wrapT": 10497
    }
  ],
  "scene": 0,
  "scenes": [
    {
      "name": "Sketchfab_Scene",
      "nodes": [
        0
      ]
    }
  ],
  "textures": [
    {
      "sampler": 0,
      "source": 0
    }
  ]
}
