{
  "accessors": [
    {
      "bufferView": 2,
      "componentType": 5126,
      "count": 5937,
      "max": [
        7.226548194885254,
        8.105676651000977,
        166.4427490234375
      ],
      "min": [
        -7.649901866912842,
        -11.70020866394043,
        148.8550262451172
      ],
      "type": "VEC3"
    },
    {
      "bufferView": 2,
      "byteOffset": 71244,
      "componentType": 5126,
      "count": 5937,
      "max": [
        0.9998565912246704,
        0.998865008354187,
        0.9992061853408813
      ],
      "min": [
        -0.9999982118606567,
        -0.9986329674720764,
        -0.9987826943397522
      ],
      "type": "VEC3"
    },
    {
      "bufferView": 1,
      "componentType": 5126,
      "count": 5937,
      "max": [
        0.9965819716453552,
        0.9933739900588989
      ],
      "min": [
        0.0005000000237487257,
        0.007323999889194965
      ],
      "type": "VEC2"
    },
    {
      "bufferView": 0,
      "componentType": 5125,
      "count": 27657,
      "type": "SCALAR"
    },
    {
      "bufferView": 2,
      "byteOffset": 142488,
      "componentType": 5126,
      "count": 4880,
      "max": [
        59.664798736572266,
        15.14490032196045,
        144.04917907714844
      ],
      "min": [
        -59.664798736572266,
        -12.604499816894531,
        5.7440900802612305
      ],
      "type": "VEC3"
    },
    {
      "bufferView": 2,
      "byteOffset": 201048,
      "componentType": 5126,
      "count": 4880,
      "max": [
        0.9992465376853943,
        0.9999680519104004,
        0.9732155799865723
      ],
      "min": [
        -0.999423623085022,
        -0.9999985694885254,
        -0.9997743964195251
      ],
      "type": "VEC3"
    },
    {
      "bufferView": 1,
      "byteOffset": 47496,
      "componentType": 5126,
      "count": 4880,
      "max": [
        0.9975590109825134,
        0.9955019950866699
      ],
      "min": [
        0.003415999934077263,
        0.005859000142663717
      ],
      "type": "VEC2"
    },
    {
      "bufferView": 0,
      "byteOffset": 110628,
      "componentType": 5125,
      "count": 24414,
      "type": "SCALAR"
    },
    {
      "bufferView": 2,
      "byteOffset": 259608,
      "componentType": 5126,
      "count": 3244,
      "max": [
        10.279461860656738,
        12.144624710083008,
        161.17678833007813
      ],
      "min": [
        -10.278068542480469,
        -9.334582328796387,
        130.54177856445313
      ],
      "type": "VEC3"
    },
    {
      "bufferView": 2,
      "byteOffset": 298536,
      "componentType": 5126,
      "count": 3244,
      "max": [
        0.9999381303787231,
        0.9999408721923828,
        0.9999997615814209
      ],
      "min": [
        -0.9988570213317871,
        -0.9998137354850769,
        -1.0
      ],
      "type": "VEC3"
    },
    {
      "bufferView": 1,
      "byteOffset": 86536,
      "componentType": 5126,
      "count": 3244,
      "max": [
        0.9936519861221313,
        0.9974349737167358
      ],
      "min": [
        0.0047450000420212746,
        0.0034179999493062496
      ],
      "type": "VEC2"
    },
    {
      "bufferView": 0,
      "byteOffset": 208284,
      "componentType": 5125,
      "count": 17622,
      "type": "SCALAR"
    },
    {
      "bufferView": 2,
      "byteOffset": 337464,
      "componentType": 5126,
      "count": 4265,
      "max": [
        21.31097412109375,
        24.40114402770996,
        98.9991226196289
      ],
      "min": [
        -21.31095314025879,
        -9.503424644470215,
        8.667093276977539
      ],
      "type": "VEC3"
    },
    {
      "bufferView": 2,
      "byteOffset": 388644,
      "componentType": 5126,
      "count": 4265,
      "max": [
        0.9998140931129456,
        0.9999971389770508,
        0.9993622303009033
      ],
      "min": [
        -0.9998140931129456,
        -0.9999045133590698,
        -0.9996568560600281
      ],
      "type": "VEC3"
    },
    {
      "bufferView": 1,
      "byteOffset": 112488,
      "componentType": 5126,
      "count": 4265,
      "max": [
        0.0,
        0.0
      ],
      "min": [
        0.0,
        0.0
      ],
      "type": "VEC2"
    },
    {
      "bufferView": 0,
      "byteOffset": 278772,
      "componentType": 5125,
      "count": 23724,
      "type": "SCALAR"
    },
    {
      "bufferView": 2,
      "byteOffset": 439824,
      "componentType": 5126,
      "count": 79,
      "max": [
        -18.321128845214844,
        24.40113639831543,
        40.09406280517578
      ],
      "min": [
        -21.31095314025879,
        8.60124683380127,
        37.27358627319336
      ],
      "type": "VEC3"
    },
    {
      "bufferView": 2,
      "byteOffset": 440772,
      "componentType": 5126,
      "count": 79,
      "max": [
        0.9857383370399475,
        0.6775943636894226,
        0.9884425401687622
      ],
      "min": [
        -0.981256365776062,
        -0.1442965567111969,
        -0.9908865094184875
      ],
      "type": "VEC3"
    },
    {
      "bufferView": 1,
      "byteOffset": 146608,
      "componentType": 5126,
      "count": 79,
      "max": [
        0.0,
        0.0
      ],
      "min": [
        0.0,
        0.0
      ],
      "type": "VEC2"
    },
    {
      "bufferView": 0,
      "byteOffset": 373668,
      "componentType": 5125,
      "count": 402,
      "type": "SCALAR"
    },
    {
      "bufferView": 2,
      "byteOffset": 441720,
      "componentType": 5126,
      "count": 22624,
      "max": [
        23.818605422973633,
        10.148115158081055,
        14.131939888000488
      ],
      "min": [
        -23.799306869506836,
        -19.08597755432129,
        -3.2726171016693115
      ],
      "type": "VEC3"
    },
    {
      "bufferView": 2,
      "byteOffset": 713208,
      "componentType": 5126,
      "count": 22624,
      "max": [
        0.9999322891235352,
        0.9998829364776611,
        0.9999997615814209
      ],
      "min": [
        -0.9999535083770752,
        -0.9998829364776611,
        -0.9999997615814209
      ],
      "type": "VEC3"
    },
    {
      "bufferView": 1,
      "byteOffset": 147240,
      "componentType": 5126,
      "count": 22624,
      "max": [
        0.0,
        0.0
      ],
      "min": [
        0.0,
        0.0
      ],
      "type": "VEC2"
    },
    {
      "bufferView": 0,
      "byteOffset": 375276,
      "componentType": 5125,
      "count": 133536,
      "type": "SCALAR"
    },
    {
      "bufferView": 2,
      "byteOffset": 984696,
      "componentType": 5126,
      "count": 7792,
      "max": [
        20.94237518310547,
        0.4692850112915039,
        13.532570838928223
      ],
      "min": [
        -20.923076629638672,
        -10.570719718933105,
        2.5944530963897705
      ],
      "type": "VEC3"
    },
    {
      "bufferView": 2,
      "byteOffset": 1078200,
      "componentType": 5126,
      "count": 7792,
      "max": [
        0.9999622106552124,
        0.9999096393585205,
        0.9998983144760132
      ],
      "min": [
        -0.9999622106552124,
        -0.9999096393585205,
        -0.9998983144760132
      ],
      "type": "VEC3"
    },
    {
      "bufferView": 1,
      "byteOffset": 328232,
      "componentType": 5126,
      "count": 7792,
      "max": [
        0.0,
        0.0
      ],
      "min": [
        0.0,
        0.0
      ],
      "type": "VEC2"
    },
    {
      "bufferView": 0,
      "byteOffset": 909420,
      "componentType": 5125,
      "count": 45000,
      "type": "SCALAR"
    }
  ],
  "asset": {
    "extras": {
      "author": "steuvyouz (https://sketchfab.com/steuvyouz1400)",
      "license": "CC-BY-4.0 (http://creativecommons.org/licenses/by/4.0/)",
      "source": "https://sketchfab.com/3d-models/fortnite-custom-model-4298772bca764724af96da6fc289696d",
      "title": "fortnite custom model"
    },
    "generator": "Sketchfab-13.58.0",
    "version": "2.0"
  },
  "bufferViews": [
    {
      "buffer": 0,
      "byteLength": 1089420,
      "name": "floatBufferViews",
      "target": 34963
    },
    {
      "buffer": 0,
      "byteLength": 390568,
      "byteOffset": 1089420,
      "byteStride": 8,
      "name": "floatBufferViews",
      "target": 34962
    },
    {
      "buffer": 0,
      "byteLength": 1171704,
      "byteOffset": 1479988,
      "byteStride": 12,
      "name": "floatBufferViews",
      "target": 34962
    }
  ],
  "buffers": [
    {
      "byteLength": 2651692,
      "uri": "scene.bin"
    }
  ],
  "images": [
    {
      "uri": "textures/shoe_baseColor.png"
    }
  ],
  "materials": [
    {
      "doubleSided": true,
      "name": "M_MED_Racer_Zero_Body",
      "pbrMetallicRoughness": {
        "metallicFactor": 0.0,
        "roughnessFactor": 0.6
      }
    },
    {
      "doubleSided": true,
      "name": "M_MED_Racer_Zero_FaceAcc",
      "pbrMetallicRoughness": {
        "metallicFactor": 0.0,
        "roughnessFactor": 0.6
      }
    },
    {
      "doubleSided": true,
      "name": "M_MED_Racer_Zero_Hair",
      "pbrMetallicRoughness": {
        "metallicFactor": 0.0,
        "roughnessFactor": 0.6
      }
    },
    {
      "doubleSided": true,
      "name": "Model001_Material003",
      "pbrMetallicRoughness": {
        "metallicFactor": 0.0,
        "roughnessFactor": 0.6
      }
    },
    {
      "doubleSided": true,
      "name": "Model001_Material004",
      "pbrMetallicRoughness": {
        "metallicFactor": 0.0,
        "roughnessFactor": 0.6
      }
    },
    {
      "doubleSided": true,
      "name": "shoe",
      "pbrMetallicRoughness": {
        "baseColorTexture": {
          "index": 0
        },
        "metallicFactor": 0.0,
        "roughnessFactor": 0.6
      }
    },
    {
      "doubleSided": true,
      "name": "shoelace",
      "pbrMetallicRoughness": {
        "baseColorTexture": {
          "index": 0
        },
        "metallicFactor": 0.0,
        "roughnessFactor": 0.6
      }
    }
  ],
  "meshes": [
    {
      "name": "Object_0",
      "primitives": [
        {
          "attributes": {
            "NORMAL": 1,
            "POSITION": 0,
            "TEXCOORD_0": 2
          },
          "indices": 3,
          "material": 0,
          "mode": 4
        }
      ]
    },
    {
      "name": "Object_1",
      "primitives": [
        {
          "attributes": {
            "NORMAL": 5,
            "POSITION": 4,
            "TEXCOORD_0": 6
          },
          "indices": 7,
          "material": 1,
          "mode": 4
        }
      ]
    },
    {
      "name": "Object_2",
      "primitives": [
        {
          "attributes": {
            "NORMAL": 9,
            "POSITION": 8,
            "TEXCOORD_0": 10
          },
          "indices": 11,
          "material": 2,
          "mode": 4
        }
      ]
    },
    {
      "name": "Object_3",
      "primitives": [
        {
          "attributes": {
            "NORMAL": 13,
            "POSITION": 12,
            "TEXCOORD_0": 14
          },
          "indices": 15,
          "material": 3,
          "mode": 4
        }
      ]
    },
    {
      "name": "Object_4",
      "primitives": [
        {
          "attributes": {
            "NORMAL": 17,
            "POSITION": 16,
            "TEXCOORD_0": 18
          },
          "indices": 19,
          "material": 4,
          "mode": 4
        }
      ]
    },
    {
      "name": "Object_5",
      "primitives": [
        {
          "attributes": {
            "NORMAL": 21,
            "POSITION": 20,
            "TEXCOORD_0": 22
          },
          "indices": 23,
          "material": 5,
          "mode": 4
        }
      ]
    },
    {
      "name": "Object_6",
      "primitives": [
        {
          "attributes": {
            "NORMAL": 25,
            "POSITION": 24,
            "TEXCOORD_0": 26
          },
          "indices": 27,
          "material": 6,
          "mode": 4
        }
      ]
    }
  ],
  "nodes": [
    {
      "children": [
        1
      ],
      "matrix": [
        0.011907609179615974,
        0.0,
        0.0,
        0.0,
        0.0,
        2.6440203758895052e-18,
        -0.011907609179615974,
        0.0,
        0.0,
        0.011907609179615974,
        2.6440203758895052e-18,
        0.0,
        0.0,
        0.0,
        0.0,
        1.0
      ],
      "name": "Sketchfab_model"
    },
    {
      "children": [
        2,
        3,
        4,
        5,
        6,
        7,
        8
      ],
      "name": "heros v2.obj.cleaner.materialmerger.gles"
    },
    {
      "mesh": 0,
      "name": "Object_2"
    },
    {
      "mesh": 1,
      "name": "Object_3"
    },
    {
      "mesh": 2,
      "name": "Object_4"
    },
    {
      "mesh": 3,
      "name": "Object_5"
    },
    {
      "mesh": 4,
      "name": "Object_6"
    },
    {
      "mesh": 5,
      "name": "Object_7"
    },
    {
      "mesh": 6,
      "name": "Object_8"
    }
  ],
  "samplers": [
    {
      "magFilter": 9729,
      "minFilter": 9987,
      "wrapS": 10497,
      "wrapT": 10497
    }
  ],
  "scene": 0,
  "scenes": [
    {
      "name": "Sketchfab_Scene",
      "nodes": [
        0
      ]
    }
  ],
  "textures": [
    {
      "sampler": 0,
      "source": 0
    }
  ]
}
