{
  "accessors": [
    {
      "bufferView": 2,
      "componentType": 5126,
      "count": 65532,
      "max": [
        0.2732711136341095,
        0.04020857438445091,
        -4.281287670135498
      ],
      "min": [
        -0.7038910984992981,
        -0.9850901961326599,
        -5.251381874084473
      ],
      "type": "VEC3"
    },
    {
      "bufferView": 2,
      "byteOffset": 786384,
      "componentType": 5126,
      "count": 65532,
      "max": [
        0.9999921917915344,
        0.9999836683273315,
        0.9566313028335571
      ],
      "min": [
        -0.9999989867210388,
        -0.9469464421272278,
        -0.9999980926513672
      ],
      "type": "VEC3"
    },
    {
      "bufferView": 1,
      "componentType": 5126,
      "count": 65532,
      "max": [
        0.9138893485069275,
        0.9370741248130798
      ],
      "min": [
        0.09165344387292862,
        0.00011454522609710693
      ],
      "type": "VEC2"
    },
    {
      "bufferView": 0,
      "componentType": 5125,
      "count": 348975,
      "type": "SCALAR"
    },
    {
      "bufferView": 2,
      "byteOffset": 1572768,
      "componentType": 5126,
      "count": 65532,
      "max": [
        0.2685595154762268,
        -0.0020663333125412464,
        -3.9457719326019287
      ],
      "min": [
        -0.7113239765167236,
        -1.0926378965377808,
        -5.244335174560547
      ],
      "type": "VEC3"
    },
    {
      "bufferView": 2,
      "byteOffset": 2359152,
      "componentType": 5126,
      "count": 65532,
      "max": [
        0.9999699592590332,
        0.9966832399368286,
        0.9164524674415588
      ],
      "min": [
        -0.9999991059303284,
        -0.9954038262367249,
        -0.9995768070220947
      ],
      "type": "VEC3"
    },
    {
      "bufferView": 1,
      "byteOffset": 524256,
      "componentType": 5126,
      "count": 65532,
      "max": [
        0.9951566457748413,
        0.9980732202529907
      ],
      "min": [
        0.10758310556411743,
        0.02305394411087036
      ],
      "type": "VEC2"
    },
    {
      "bufferView": 0,
      "byteOffset": 1395900,
      "componentType": 5125,
      "count": 348129,
      "type": "SCALAR"
    },
    {
      "bufferView": 2,
      "byteOffset": 3145536,
      "componentType": 5126,
      "count": 65532,
      "max": [
        0.2995830476284027,
        -0.006354989018291235,
        -3.7516143321990967
      ],
      "min": [
        -0.7129127383232117,
        -1.1292201280593872,
        -5.223508358001709
      ],
      "type": "VEC3"
    },
    {
      "bufferView": 2,
      "byteOffset": 3931920,
      "componentType": 5126,
      "count": 65532,
      "max": [
        0.9999998211860657,
        0.9993544220924377,
        0.9980617761611938
      ],
      "min": [
        -0.9999853372573853,
        -0.9999963641166687,
        -0.9640244841575623
      ],
      "type": "VEC3"
    },
    {
      "bufferView": 1,
      "byteOffset": 1048512,
      "componentType": 5126,
      "count": 65532,
      "max": [
        0.9999676942825317,
        0.9985103607177734
      ],
      "min": [
        0.004948328714817762,
        0.021265313029289246
      ],
      "type": "VEC2"
    },
    {
      "bufferView": 0,
      "byteOffset": 2788416,
      "componentType": 5125,
      "count": 341316,
      "type": "SCALAR"
    },
    {
      "bufferView": 2,
      "byteOffset": 4718304,
      "componentType": 5126,
      "count": 65532,
      "max": [
        0.2901460826396942,
        0.04004944488406181,
        -3.5636305809020996
      ],
      "min": [
        -0.7133033871650696,
        -1.1283589601516724,
        -5.252268314361572
      ],
      "type": "VEC3"
    },
    {
      "bufferView": 2,
      "byteOffset": 5504688,
      "componentType": 5126,
      "count": 65532,
      "max": [
        0.9999921917915344,
        0.9999555945396423,
        0.9996953010559082
      ],
      "min": [
        -0.9999989867210388,
        -0.9998733997344971,
        -0.9999891519546509
      ],
      "type": "VEC3"
    },
    {
      "bufferView": 1,
      "byteOffset": 1572768,
      "componentType": 5126,
      "count": 65532,
      "max": [
        0.9983037114143372,
        0.9861480593681335
      ],
      "min": [
        0.0017852341989055276,
        0.0008179993601515889
      ],
      "type": "VEC2"
    },
    {
      "bufferView": 0,
      "byteOffset": 4153680,
      "componentType": 5125,
      "count": 268875,
      "type": "SCALAR"
    },
    {
      "bufferView": 2,
      "byteOffset": 6291072,
      "componentType": 5126,
      "count": 49439,
      "max": [
        0.2995804250240326,
        -0.03612082824110985,
        -3.56219744682312
      ],
      "min": [
        -0.7130066752433777,
        -1.1290704011917114,
        -4.865606307983398
      ],
      "type": "VEC3"
    },
    {
      "bufferView": 2,
      "byteOffset": 6884340,
      "componentType": 5126,
      "count": 49439,
      "max": [
        0.9999998211860657,
        0.9999555945396423,
        0.9999995827674866
      ],
      "min": [
        -0.9999279975891113,
        -0.9999963641166687,
        -0.9999188780784607
      ],
      "type": "VEC3"
    },
    {
      "bufferView": 1,
      "byteOffset": 2097024,
      "componentType": 5126,
      "count": 49439,
      "max": [
        0.992592453956604,
        0.9984452128410339
      ],
      "min": [
        2.602650783956051e-05,
        0.011691197752952576
      ],
      "type": "VEC2"
    },
    {
      "bufferView": 0,
      "byteOffset": 5229180,
      "componentType": 5125,
      "count": 192675,
      "type": "SCALAR"
    }
  ],
  "asset": {
    "extras": {
      "author": "SCDNR-HTP (https://sketchfab.com/SCDNR-HTP)",
      "license": "CC-BY-NC-ND-4.0 (http://creativecommons.org/licenses/by-nc-nd/4.0/)",
      "source": "https://sketchfab.com/3d-models/edgefield-pottery-collection-63-marked-stacker-dd699f36f98f4d2b9b5464ad6664a870",
      "title": "Edgefield Pottery Collection 63 - Marked Stacker"
    },
    "generator": "Sketchfab-13.42.0",
    "version": "2.0"
  },
  "bufferViews": [
    {
      "buffer": 0,
      "byteLength": 5999880,
      "name": "floatBufferViews",
      "target": 34963
    },
    {
      "buffer": 0,
      "byteLength": 2492536,
      "byteOffset": 5999880,
      "byteStride": 8,
      "name": "floatBufferViews",
      "target": 34962
    },
    {
      "buffer": 0,
      "byteLength": 7477608,
      "byteOffset": 8492416,
      "byteStride": 12,
      "name": "floatBufferViews",
      "target": 34962
    }
  ],
  "buffers": [
    {
      "byteLength": 15970024,
      "uri": "scene.bin"
    }
  ],
  "images": [
    {
      "uri": "textures/material0_baseColor.jpeg"
    }
  ],
  "materials": [
    {
      "doubleSided": true,
      "name": "material0",
      "pbrMetallicRoughness": {
        "baseColorTexture": {
          "index": 0
        },
        "metallicFactor": 0.0
      }
    }
  ],
  "meshes": [
    {
      "name": "Model_material0_0",
      "primitives": [
        {
          "attributes": {
            "NORMAL": 1,
            "POSITION": 0,
            "TEXCOORD_0": 2
          },
          "indices": 3,
          "material": 0,
          "mode": 4
        }
      ]
    },
    {
      "name": "Model_material0_0",
      "primitives": [
        {
          "attributes": {
            "NORMAL": 5,
            "POSITION": 4,
            "TEXCOORD_0": 6
          },
          "indices": 7,
          "material": 0,
          "mode": 4
        }
      ]
    },
    {
      "name": "Model_material0_0",
      "primitives": [
        {
          "attributes": {
            "NORMAL": 9,
            "POSITION": 8,
            "TEXCOORD_0": 10
          },
          "indices": 11,
          "material": 0,
          "mode": 4
        }
      ]
    },
    {
      "name": "Model_material0_0",
      "primitives": [
        {
          "attributes": {
            "NORMAL": 13,
            "POSITION": 12,
            "TEXCOORD_0": 14
          },
          "indices": 15,
          "material": 0,
          "mode": 4
        }
      ]
    },
    {
      "name": "Model_material0_0",
      "primitives": [
        {
          "attributes": {
            "NORMAL": 17,
            "POSITION": 16,
            "TEXCOORD_0": 18
          },
          "indices": 19,
          "material": 0,
          "mode": 4
        }
      ]
    }
  ],
  "nodes": [
    {
      "children": [
        1
      ],
      "matrix": [
        0.7982614040374756,
        -0.021204201504587992,
        -0.6019378304481506,
        0.0,
        0.5908798575401306,
        0.22135099768638594,
        0.7757994532585144,
        0.0,
        0.1167893260717392,
        -0.9749636650085449,
        0.18922509253025033,
        0.0,
        0.0,
        0.0,
        0.0,
        1.0
      ],
      "name": "Sketchfab_model"
    },
    {
      "children": [
        2
      ],
      "matrix": [
        1.0,
        0.0,
        0.0,
        0.0,
        0.0,
        -1.0,
        0.0,
        0.0,
        0.0,
        0.0,
        -1.0,
        0.0,
        0.0,
        0.0,
        0.0,
        1.0
      ],
      "name": "Jug 63 500k.fbx"
    },
    {
      "children": [
        3
      ],
      "name": "RootNode"
    },
    {
      "children": [
        4,
        5,
        6,
        7,
        8
      ],
      "name": "Model"
    },
    {
      "mesh": 0,
      "name": "Model_material0_0"
    },
    {
      "mesh": 1,
      "name": "Model_material0_0"
    },
    {
      "mesh": 2,
      "name": "Model_material0_0"
    },
    {
      "mesh": 3,
      "name": "Model_material0_0"
    },
    {
      "mesh": 4,
      "name": "Model_material0_0"
    }
  ],
  "samplers": [
    {
      "magFilter": 9729,
      "minFilter": 9987,
      "wrapS": 10497,
      "wrapT": 10497
    }
  ],
  "scene": 0,
  "scenes": [
    {
      "name": "Sketchfab_Scene",
      "nodes": [
        0
      ]
    }
  ],
  "textures": [
    {
      "sampler": 0,
      "source": 0
    }
  ]
}
