{
  "accessors": [
    {
      "bufferView": 2,
      "componentType": 5126,
      "count": 8623,
      "max": [
        0.2650589644908905,
        0.33950063586235046,
        1.71915602684021
      ],
      "min": [
        -0.2646828591823578,
        -0.1777271032333374,
        1.2591495513916016
      ],
      "type": "VEC3"
    },
    {
      "bufferView": 2,
      "byteOffset": 103476,
      "componentType": 5126,
      "count": 8623,
      "max": [
        1.0,
        0.9999361038208008,
        0.9999135732650757
      ],
      "min": [
        -1.0,
        -0.9998736381530762,
        -0.9995912909507751
      ],
      "type": "VEC3"
    },
    {
      "bufferView": 1,
      "componentType": 5126,
      "count": 8623,
      "max": [
        0.7944494485855103,
        0.9673861861228943
      ],
      "min": [
        0.1321895867586136,
        0.43608853220939636
      ],
      "type": "VEC2"
    },
    {
      "bufferView": 0,
      "componentType": 5125,
      "count": 44544,
      "type": "SCALAR"
    },
    {
      "bufferView": 2,
      "byteOffset": 206952,
      "componentType": 5126,
      "count": 13944,
      "max": [
        0.9199182391166687,
        0.24131859838962555,
        1.5375657081604004
      ],
      "min": [
        -0.9199183583259583,
        -0.1987714320421219,
        0.9809714555740356
      ],
      "type": "VEC3"
    },
    {
      "bufferView": 2,
      "byteOffset": 374280,
      "componentType": 5126,
      "count": 13944,
      "max": [
        0.999988317489624,
        0.9999989867210388,
        1.0
      ],
      "min": [
        -0.9999882578849792,
        -0.9999996423721313,
        -1.0
      ],
      "type": "VEC3"
    },
    {
      "bufferView": 1,
      "byteOffset": 68984,
      "componentType": 5126,
      "count": 13944,
      "max": [
        0.986047089099884,
        0.9949485063552856
      ],
      "min": [
        0.09970831871032715,
        0.0009475946426391602
      ],
      "type": "VEC2"
    },
    {
      "bufferView": 0,
      "byteOffset": 178176,
      "componentType": 5125,
      "count": 69504,
      "type": "SCALAR"
    },
    {
      "bufferView": 2,
      "byteOffset": 541608,
      "componentType": 5126,
      "count": 2416,
      "max": [
        0.09754831343889236,
        -0.1404532492160797,
        1.4198248386383057
      ],
      "min": [
        -0.09754836559295654,
        -0.18963375687599182,
        1.3311001062393188
      ],
      "type": "VEC3"
    },
    {
      "bufferView": 2,
      "byteOffset": 570600,
      "componentType": 5126,
      "count": 2416,
      "max": [
        0.9993744492530823,
        0.9988365769386292,
        0.9969587326049805
      ],
      "min": [
        -0.999374508857727,
        -0.9993325471878052,
        -0.9975080490112305
      ],
      "type": "VEC3"
    },
    {
      "bufferView": 1,
      "byteOffset": 180536,
      "componentType": 5126,
      "count": 2416,
      "max": [
        0.7046763300895691,
        0.807838499546051
      ],
      "min": [
        0.000947609543800354,
        0.6478664875030518
      ],
      "type": "VEC2"
    },
    {
      "bufferView": 0,
      "byteOffset": 456192,
      "componentType": 5125,
      "count": 12288,
      "type": "SCALAR"
    },
    {
      "bufferView": 2,
      "byteOffset": 599592,
      "componentType": 5126,
      "count": 1686,
      "max": [
        0.04719426855444908,
        -0.15918412804603577,
        1.3631092309951782
      ],
      "min": [
        -0.04719429090619087,
        -0.2554806172847748,
        1.2296866178512573
      ],
      "type": "VEC3"
    },
    {
      "bufferView": 2,
      "byteOffset": 619824,
      "componentType": 5126,
      "count": 1686,
      "max": [
        0.9995941519737244,
        0.9998213648796082,
        0.9954946041107178
      ],
      "min": [
        -0.9995941519737244,
        -0.9999809861183167,
        -0.9994983077049255
      ],
      "type": "VEC3"
    },
    {
      "bufferView": 1,
      "byteOffset": 199864,
      "componentType": 5126,
      "count": 1686,
      "max": [
        0.9591090083122253,
        0.9356910586357117
      ],
      "min": [
        0.0009475946426391602,
        0.3567584455013275
      ],
      "type": "VEC2"
    },
    {
      "bufferView": 0,
      "byteOffset": 505344,
      "componentType": 5125,
      "count": 8448,
      "type": "SCALAR"
    },
    {
      "bufferView": 2,
      "byteOffset": 640056,
      "componentType": 5126,
      "count": 11247,
      "max": [
        0.25396257638931274,
        -0.05128227919340134,
        1.4549472332000732
      ],
      "min": [
        -0.2539626955986023,
        -0.24247778952121735,
        0.8482233285903931
      ],
      "type": "VEC3"
    },
    {
      "bufferView": 2,
      "byteOffset": 775020,
      "componentType": 5126,
      "count": 11247,
      "max": [
        0.9999245405197144,
        1.0,
        0.9999715089797974
      ],
      "min": [
        -0.9999245405197144,
        -0.9999300837516785,
        -0.9999925494194031
      ],
      "type": "VEC3"
    },
    {
      "bufferView": 1,
      "byteOffset": 213352,
      "componentType": 5126,
      "count": 11247,
      "max": [
        0.9696428775787354,
        0.9251702427864075
      ],
      "min": [
        0.0009476103004999459,
        0.0009475946426391602
      ],
      "type": "VEC2"
    },
    {
      "bufferView": 0,
      "byteOffset": 539136,
      "componentType": 5125,
      "count": 53328,
      "type": "SCALAR"
    },
    {
      "bufferView": 2,
      "byteOffset": 909984,
      "componentType": 5126,
      "count": 8170,
      "max": [
        0.4009597599506378,
        0.2704278826713562,
        1.1688635349273682
      ],
      "min": [
        -0.40095973014831543,
        -0.13564161956310272,
        0.6554142832756042
      ],
      "type": "VEC3"
    },
    {
      "bufferView": 2,
      "byteOffset": 1008024,
      "componentType": 5126,
      "count": 8170,
      "max": [
        1.0,
        0.9999971985816956,
        0.9999989867210388
      ],
      "min": [
        -1.0,
        -0.9999971985816956,
        -0.9999990463256836
      ],
      "type": "VEC3"
    },
    {
      "bufferView": 1,
      "byteOffset": 303328,
      "componentType": 5126,
      "count": 8170,
      "max": [
        0.9910339713096619,
        0.9887828826904297
      ],
      "min": [
        0.0009475946426391602,
        0.000947594759054482
      ],
      "type": "VEC2"
    },
    {
      "bufferView": 0,
      "byteOffset": 752448,
      "componentType": 5125,
      "count": 39936,
      "type": "SCALAR"
    },
    {
      "bufferView": 2,
      "byteOffset": 1106064,
      "componentType": 5126,
      "count": 21384,
      "max": [
        0.3094603419303894,
        0.2820749580860138,
        0.7220571041107178
      ],
      "min": [
        -0.309460312128067,
        -0.12535129487514496,
        0.263955682516098
      ],
      "type": "VEC3"
    },
    {
      "bufferView": 2,
      "byteOffset": 1362672,
      "componentType": 5126,
      "count": 21384,
      "max": [
        0.99998939037323,
        0.9999989867210388,
        1.0
      ],
      "min": [
        -0.9999893307685852,
        -0.99998939037323,
        -1.0
      ],
      "type": "VEC3"
    },
    {
      "bufferView": 1,
      "byteOffset": 368688,
      "componentType": 5126,
      "count": 21384,
      "max": [
        0.97455233335495,
        0.9990523457527161
      ],
      "min": [
        0.000947609543800354,
        0.09743888676166534
      ],
      "type": "VEC2"
    },
    {
      "bufferView": 0,
      "byteOffset": 912192,
      "componentType": 5125,
      "count": 107520,
      "type": "SCALAR"
    },
    {
      "bufferView": 2,
      "byteOffset": 1619280,
      "componentType": 5126,
      "count": 3584,
      "max": [
        0.33086147904396057,
        0.2925359904766083,
        0.7647498250007629
      ],
      "min": [
        -0.3311130702495575,
        -0.15334172546863556,
        0.6407638192176819
      ],
      "type": "VEC3"
    },
    {
      "bufferView": 2,
      "byteOffset": 1662288,
      "componentType": 5126,
      "count": 3584,
      "max": [
        1.0,
        0.9999180436134338,
        0.9999710917472839
      ],
      "min": [
        -1.0,
        -0.9999181032180786,
        -0.9999710917472839
      ],
      "type": "VEC3"
    },
    {
      "bufferView": 1,
      "byteOffset": 539760,
      "componentType": 5126,
      "count": 3584,
      "max": [
        0.888238787651062,
        0.8766735196113586
      ],
      "min": [
        0.27520638704299927,
        0.0009476103004999459
      ],
      "type": "VEC2"
    },
    {
      "bufferView": 0,
      "byteOffset": 1342272,
      "componentType": 5125,
      "count": 18432,
      "type": "SCALAR"
    },
    {
      "bufferView": 2,
      "byteOffset": 1705296,
      "componentType": 5126,
      "count": 5558,
      "max": [
        0.3061150908470154,
        0.1627715677022934,
        0.29561010003089905
      ],
      "min": [
        -0.30611515045166016,
        -0.17202062904834747,
        0.02549470029771328
      ],
      "type": "VEC3"
    },
    {
      "bufferView": 2,
      "byteOffset": 1771992,
      "componentType": 5126,
      "count": 5558,
      "max": [
        0.9998445510864258,
        0.9980636835098267,
        1.0
      ],
      "min": [
        -0.9998445510864258,
        -0.998328447341919,
        -1.0
      ],
      "type": "VEC3"
    },
    {
      "bufferView": 1,
      "byteOffset": 568432,
      "componentType": 5126,
      "count": 5558,
      "max": [
        0.9962997436523438,
        0.9956631660461426
      ],
      "min": [
        0.000947594759054482,
        0.000947594759054482
      ],
      "type": "VEC2"
    },
    {
      "bufferView": 0,
      "byteOffset": 1416000,
      "componentType": 5125,
      "count": 27648,
      "type": "SCALAR"
    },
    {
      "bufferView": 2,
      "byteOffset": 1838688,
      "componentType": 5126,
      "count": 10094,
      "max": [
        0.062330517917871475,
        -0.1314023733139038,
        0.7509403228759766
      ],
      "min": [
        -0.04366333782672882,
        -0.16078978776931763,
        0.6330500841140747
      ],
      "type": "VEC3"
    },
    {
      "bufferView": 2,
      "byteOffset": 1959816,
      "componentType": 5126,
      "count": 10094,
      "max": [
        1.0,
        0.999997615814209,
        1.0
      ],
      "min": [
        -1.0,
        -0.9999976754188538,
        -0.9999999403953552
      ],
      "type": "VEC3"
    },
    {
      "bufferView": 1,
      "byteOffset": 612896,
      "componentType": 5126,
      "count": 10094,
      "max": [
        0.9462589025497437,
        0.9835692048072815
      ],
      "min": [
        0.3773246705532074,
        0.0009475946426391602
      ],
      "type": "VEC2"
    },
    {
      "bufferView": 0,
      "byteOffset": 1526592,
      "componentType": 5125,
      "count": 44928,
      "type": "SCALAR"
    }
  ],
  "asset": {
    "extras": {
      "author": "Ivan Petralia (https://sketchfab.com/petraliaivan)",
      "license": "CC-BY-4.0 (http://creativecommons.org/licenses/by/4.0/)",
      "source": "https://sketchfab.com/3d-models/bobby-the-smith-d283563d08bd4399b39315136b06c73f",
      "title": "Bobby the Smith"
    },
    "generator": "Sketchfab-13.72.0",
    "version": "2.0"
  },
  "bufferViews": [
    {
      "buffer": 0,
      "byteLength": 1706304,
      "name": "floatBufferViews",
      "target": 34963
    },
    {
      "buffer": 0,
      "byteLength": 693648,
      "byteOffset": 1706304,
      "byteStride": 8,
      "name": "floatBufferViews",
      "target": 34962
    },
    {
      "buffer": 0,
      "byteLength": 2080944,
      "byteOffset": 2399952,
      "byteStride": 12,
      "name": "floatBufferViews",
      "target": 34962
    }
  ],
  "buffers": [
    {
      "byteLength": 4480896,
      "uri": "scene.bin"
    }
  ],
  "materials": [
    {
      "doubleSided": true,
      "name": "material",
      "pbrMetallicRoughness": {
        "baseColorFactor": [
          0.8,
          0.275187,
          0.0286516,
          1.0
        ],
        "metallicFactor": 0.0
      }
    },
    {
      "doubleSided": true,
      "name": "Skin",
      "pbrMetallicRoughness": {
        "baseColorFactor": [
          0.799103,
          0.462077,
          0.309469,
          1.0
        ],
        "metallicFactor": 0.0
      }
    },
    {
      "doubleSided": true,
      "name": "material_2",
      "pbrMetallicRoughness": {
        "baseColorFactor": [
          0.0,
          0.0,
          0.0,
          1.0
        ],
        "metallicFactor": 0.0
      }
    },
    {
      "doubleSided": true,
      "name": "nose",
      "pbrMetallicRoughness": {
        "baseColorFactor": [
          0.8,
          0.30551,
          0.267484,
          1.0
        ],
        "metallicFactor": 0.0
      }
    },
    {
      "doubleSided": true,
      "name": "Hair",
      "pbrMetallicRoughness": {
        "baseColorFactor": [
          0.137583,
          0.0429964,
          0.0129502,
          1.0
        ],
        "metallicFactor": 0.0
      }
    },
    {
      "doubleSided": true,
      "name": "shirt",
      "pbrMetallicRoughness": {
        "baseColorFactor": [
          0.093059,
          0.168269,
          0.332452,
          1.0
        ],
        "metallicFactor": 0.0
      }
    },
    {
      "doubleSided": true,
      "name": "pant",
      "pbrMetallicRoughness": {
        "baseColorFactor": [
          0.1424,
          0.0587264,
          0.0167156,
          1.0
        ],
        "metallicFactor": 0.0
      }
    },
    {
      "doubleSided": true,
      "name": "pant2",
      "pbrMetallicRoughness": {
        "baseColorFactor": [
          0.0699778,
          0.0186642,
          0.00198888,
          1.0
        ],
        "metallicFactor": 0.0,
        "roughnessFactor": 0.9936563839871002
      }
    },
    {
      "doubleSided": true,
      "name": "Boots",
      "pbrMetallicRoughness": {
        "baseColorFactor": [
          0.0290722,
          0.00949856,
          0.00375628,
          1.0
        ],
        "metallicFactor": 0.0
      }
    },
    {
      "doubleSided": true,
      "name": "metal",
      "pbrMetallicRoughness": {
        "baseColorFactor": [
          0.318538,
          0.303539,
          0.239134,
          1.0
        ],
        "metallicFactor": 0.0,
        "roughnessFactor": 0.9239472836315951
      }
    }
  ],
  "meshes": [
    {
      "name": "Cylinder.001_Hat_0",
      "primitives": [
        {
          "attributes": {
            "NORMAL": 1,
            "POSITION": 0,
            "TEXCOORD_0": 2
          },
          "indices": 3,
          "material": 0,
          "mode": 4
        }
      ]
    },
    {
      "name": "Cylinder.001_Skin_0",
      "primitives": [
        {
          "attributes": {
            "NORMAL": 5,
            "POSITION": 4,
            "TEXCOORD_0": 6
          },
          "indices": 7,
          "material": 1,
          "mode": 4
        }
      ]
    },
    {
      "name": "Cylinder.001_eye_0",
      "primitives": [
        {
          "attributes": {
            "NORMAL": 9,
            "POSITION": 8,
            "TEXCOORD_0": 10
          },
          "indices": 11,
          "material": 2,
          "mode": 4
        }
      ]
    },
    {
      "name": "Cylinder.001_nose_0",
      "primitives": [
        {
          "attributes": {
            "NORMAL": 13,
            "POSITION": 12,
            "TEXCOORD_0": 14
          },
          "indices": 15,
          "material": 3,
          "mode": 4
        }
      ]
    },
    {
      "name": "Cylinder.001_Hair_0",
      "primitives": [
        {
          "attributes": {
            "NORMAL": 17,
            "POSITION": 16,
            "TEXCOORD_0": 18
          },
          "indices": 19,
          "material": 4,
          "mode": 4
        }
      ]
    },
    {
      "name": "Cylinder.001_shirt_0",
      "primitives": [
        {
          "attributes": {
            "NORMAL": 21,
            "POSITION": 20,
            "TEXCOORD_0": 22
          },
          "indices": 23,
          "material": 5,
          "mode": 4
        }
      ]
    },
    {
      "name": "Cylinder.001_pant_0",
      "primitives": [
        {
          "attributes": {
            "NORMAL": 25,
            "POSITION": 24,
            "TEXCOORD_0": 26
          },
          "indices": 27,
          "material": 6,
          "mode": 4
        }
      ]
    },
    {
      "name": "Cylinder.001_pant2_0",
      "primitives": [
        {
          "attributes": {
            "NORMAL": 29,
            "POSITION": 28,
            "TEXCOORD_0": 30
          },
          "indices": 31,
          "material": 7,
          "mode": 4
        }
      ]
    },
    {
      "name": "Cylinder.001_Boots_0",
      "primitives": [
        {
          "attributes": {
            "NORMAL": 33,
            "POSITION": 32,
            "TEXCOORD_0": 34
          },
          "indices": 35,
          "material": 8,
          "mode": 4
        }
      ]
    },
    {
      "name": "Cylinder.001_metal_0",
      "primitives": [
        {
          "attributes": {
            "NORMAL": 37,
            "POSITION": 36,
            "TEXCOORD_0": 38
          },
          "indices": 39,
          "material": 9,
          "mode": 4
        }
      ]
    }
  ],
  "nodes": [
    {
      "children": [
        1
      ],
      "matrix": [
        0.8747499585151672,
        0.0,
        0.0,
        0.0,
        0.0,
        1.9423350894668784e-16,
        -0.8747499585151672,
        0.0,
        0.0,
        0.8747499585151672,
        1.9423350894668784e-16,
        0.0,
        0.0,
        0.0,
        0.0,
        1.0
      ],
      "name": "Sketchfab_model"
    },
    {
      "children": [
        2
      ],
      "matrix": [
        0.009999999776482582,
        0.0,
        0.0,
        0.0,
        0.0,
        0.0,
        0.009999999776482582,
        0.0,
        0.0,
        -0.009999999776482582,
        0.0,
        0.0,
        0.0,
        0.0,
        0.0,
        1.0
      ],
      "name": "05e59f2475de4181afa970451ceeec33.fbx"
    },
    {
      "children": [
        3
      ],
      "name": "RootNode"
    },
    {
      "children": [
        4,
        5,
        6,
        7,
        8,
        9,
        10,
        11,
        12,
        13
      ],
      "matrix": [
        100.0,
        0.0,
        0.0,
        0.0,
        0.0,
        -1.629206793918314e-05,
        -99.99999999999868,
        0.0,
        0.0,
        99.99999999999868,
        -1.629206793918314e-05,
        0.0,
        0.0,
        0.0,
        0.0,
        1.0
      ],
      "name": "Cylinder.001"
    },
    {
      "mesh": 0,
      "name": "Cylinder.001_Hat_0"
    },
    {
      "mesh": 1,
      "name": "Cylinder.001_Skin_0"
    },
    {
      "mesh": 2,
      "name": "Cylinder.001_eye_0"
    },
    {
      "mesh": 3,
      "name": "Cylinder.001_nose_0"
    },
    {
      "mesh": 4,
      "name": "Cylinder.001_Hair_0"
    },
    {
      "mesh": 5,
      "name": "Cylinder.001_shirt_0"
    },
    {
      "mesh": 6,
      "name": "Cylinder.001_pant_0"
    },
    {
      "mesh": 7,
      "name": "Cylinder.001_pant2_0"
    },
    {
      "mesh": 8,
      "name": "Cylinder.001_Boots_0"
    },
    {
      "mesh": 9,
      "name": "Cylinder.001_metal_0"
    }
  ],
  "scene": 0,
  "scenes": [
    {
      "name": "Sketchfab_Scene",
      "nodes": [
        0
      ]
    }
  ]
}
