{
  "accessors": [
    {
      "bufferView": 2,
      "componentType": 5126,
      "count": 54535,
      "max": [
        0.044714443385601044,
        0.05578796565532684,
        0.10518467426300049
      ],
      "min": [
        -0.044714443385601044,
        -0.05578796565532684,
        -0.10518467426300049
      ],
      "type": "VEC3"
    },
    {
      "bufferView": 2,
      "byteOffset": 654420,
      "componentType": 5126,
      "count": 54535,
      "max": [
        0.9999880790710449,
        0.9999864101409912,
        0.9999969005584717
      ],
      "min": [
        -0.9999822378158569,
        -0.9999932646751404,
        -0.9999767541885376
      ],
      "type": "VEC3"
    },
    {
      "bufferView": 1,
      "componentType": 5126,
      "count": 54535,
      "max": [
        0.9988800883293152,
        0.999961793422699
      ],
      "min": [
        3.990145705756731e-05,
        8.920434083847795e-06
      ],
      "type": "VEC2"
    },
    {
      "bufferView": 1,
      "byteOffset": 436280,
      "componentType": 5126,
      "count": 54535,
      "max": [
        0.9988800883293152,
        0.999961793422699
      ],
      "min": [
        3.990145705756731e-05,
        8.920434083847795e-06
      ],
      "type": "VEC2"
    },
    {
      "bufferView": 1,
      "byteOffset": 872560,
      "componentType": 5126,
      "count": 54535,
      "max": [
        0.9988800883293152,
        0.999961793422699
      ],
      "min": [
        3.990145705756731e-05,
        8.920434083847795e-06
      ],
      "type": "VEC2"
    },
    {
      "bufferView": 1,
      "byteOffset": 1308840,
      "componentType": 5126,
      "count": 54535,
      "max": [
        0.9988800883293152,
        0.999961793422699
      ],
      "min": [
        3.990145705756731e-05,
        8.920434083847795e-06
      ],
      "type": "VEC2"
    },
    {
      "bufferView": 1,
      "byteOffset": 1745120,
      "componentType": 5126,
      "count": 54535,
      "max": [
        0.9988800883293152,
        0.999961793422699
      ],
      "min": [
        3.990145705756731e-05,
        8.920434083847795e-06
      ],
      "type": "VEC2"
    },
    {
      "bufferView": 0,
      "componentType": 5125,
      "count": 300000,
      "type": "SCALAR"
    }
  ],
  "asset": {
    "extras": {
      "author": "andreialexandrescu888 (https://sketchfab.com/aaa888)",
      "license": "CC-BY-NC-SA-4.0 (http://creativecommons.org/licenses/by-nc-sa/4.0/)",
      "source": "https://sketchfab.com/3d-models/new-balance-kids-bcd715c1c7934537887ba2c6c5330d79",
      "title": "New Balance Kids"
    },
    "generator": "Sketchfab-13.55.0",
    "version": "2.0"
  },
  "bufferViews": [
    {
      "buffer": 0,
      "byteLength": 1200000,
      "name": "floatBufferViews",
      "target": 34963
    },
    {
      "buffer": 0,
      "byteLength": 2181400,
      "byteOffset": 1200000,
      "byteStride": 8,
      "name": "floatBufferViews",
      "target": 34962
    },
    {
      "buffer": 0,
      "byteLength": 1308840,
      "byteOffset": 3381400,
      "byteStride": 12,
      "name": "floatBufferViews",
      "target": 34962
    }
  ],
  "buffers": [
    {
      "byteLength": 4690240,
      "uri": "scene.bin"
    }
  ],
  "extensionsUsed": [
    "KHR_materials_unlit"
  ],
  "images": [
    {
      "uri": "textures/material_0_baseColor.jpeg"
    }
  ],
  "materials": [
    {
      "extensions": {
        "KHR_materials_unlit": {}
      },
      "name": "material_0",
      "pbrMetallicRoughness": {
        "baseColorTexture": {
          "index": 0
        },
        "metallicFactor": 0.0
      }
    }
  ],
  "meshes": [
    {
      "name": "Object_0",
      "primitives": [
        {
          "attributes": {
            "NORMAL": 1,
            "POSITION": 0,
            "TEXCOORD_0": 2,
            "TEXCOORD_1": 3,
            "TEXCOORD_2": 4,
            "TEXCOORD_3": 5,
            "TEXCOORD_4": 6
          },
          "indices": 7,
          "material": 0,
          "mode": 4
        }
      ]
    }
  ],
  "nodes": [
    {
      "children": [
        1
      ],
      "matrix": [
        1.0,
        0.0,
        0.0,
        0.0,
        0.0,
        2.220446049250313e-16,
        -1.0,
        0.0,
        0.0,
        1.0,
        2.220446049250313e-16,
        0.0,
        0.0,
        0.0,
        0.0,
        1.0
      ],
      "name": "Sketchfab_model"
    },
    {
      "children": [
        2
      ],
      "name": "root"
    },
    {
      "children": [
        3
      ],
      "matrix": [
        1.0,
        0.0,
        0.0,
        0.0,
        0.0,
        2.220446049250313e-16,
        1.0,
        0.0,
        0.0,
        -1.0,
        2.220446049250313e-16,
        0.0,
        0.0,
        0.0,
        0.0,
        1.0
      ],
      "name": "GLTF_SceneRootNode"
    },
    {
      "children": [
        4
      ],
      "name": "_0"
    },
    {
      "mesh": 0,
      "name": "Object_4"
    }
  ],
  "samplers": [
    {
      "magFilter": 9729,
      "minFilter": 9987,
      "wrapS": 10497,
      "wrapT": 10497
    }
  ],
  "scene": 0,
  "scenes": [
    {
      "name": "Sketchfab_Scene",
      "nodes": [
        0
      ]
    }
  ],
  "textures": [
    {
      "sampler": 0,
      "source": 0
    }
  ]
}
